<svg xmlns="http://www.w3.org/2000/svg" version="1.1" xmlns:xlink="http://www.w3.org/1999/xlink" xmlns:svgjs="http://svgjs.dev/svgjs" width="1000" height="636" viewBox="0 0 1000 636"><g transform="matrix(1,0,0,1,-0.566713237348722,0.2574898785425148)"><svg viewBox="0 0 388 247" data-background-color="#ffffff" preserveAspectRatio="xMidYMid meet" height="636" width="1000" xmlns="http://www.w3.org/2000/svg" xmlns:xlink="http://www.w3.org/1999/xlink"><g id="tight-bounds" transform="matrix(1,0,0,1,0.2198847360913021,-0.09999999999999432)"><svg viewBox="0 0 387.5602305278174 247.2" height="247.2" width="387.5602305278174"><g><svg viewBox="0 0 387.5602305278174 247.2" height="247.2" width="387.5602305278174"><g><svg viewBox="0 0 387.5602305278174 247.2" height="247.2" width="387.5602305278174"><g><svg viewBox="0 0 387.5602305278174 247.2" height="247.2" width="387.5602305278174"><g><svg viewBox="0 0 387.5602305278174 247.2" height="247.2" width="387.5602305278174"><rect width="387.5602305278174" height="247.2" x="0" y="0" opacity="1" fill="#ff4136" data-fill-palette-color="tertiary"></rect><g transform="matrix(1,0,0,1,23.607599999999998,23.607599999999998)"><svg width="340.3450305278174" viewBox="4.55 -35.05 59.650000000000006 35.05" height="199.9848" data-palette-color="#ffffff"><path d="M11.4-16.45L11.4-16.45 8.3-16.45 8.3-0.05 4.55-0.05 4.55-35.05 14.65-35.05Q19.75-35.05 22.33-32.73 24.9-30.4 24.9-26.1L24.9-26.1Q24.9-23.1 22.83-20.6 20.75-18.1 17.7-17.7L17.7-17.7Q20.15-17.15 21.18-16.13 22.2-15.1 23.6-11.75L23.6-11.75 28.55-0.05 24.6-0.05 19.75-11.25Q18.4-14.4 16.73-15.43 15.05-16.45 11.4-16.45ZM14.45-31.85L14.45-31.85 8.3-31.85 8.3-19.65 13.95-19.65Q17.05-19.65 18.88-21.48 20.7-23.3 20.7-26.1 20.7-28.9 19.05-30.38 17.4-31.85 14.45-31.85ZM64.2-35L64.2 0 60.45 0 60.45-28.7 49.2-9.2 47.9-9.25 36.65-28.65 36.65 0 32.95 0 32.95-35 37.15-35 48.6-15.75 60.45-35 64.2-35Z" opacity="1" transform="matrix(1,0,0,1,0,0)" fill="#ffffff" class="undefined-text-0" data-fill-palette-color="quaternary" id="text-0"></path></svg></g></svg></g></svg></g></svg></g></svg></g><defs></defs></svg><rect width="387.5602305278174" height="247.2" fill="none" stroke="none" visibility="hidden"></rect></g></svg></g></svg>